# xmcd CD database file
#
# Track frame offsets:
#	150
#	13648
#	24313
#	37964
#	52004
#	65684
#	78228
#	89729
#	102490
#	117243
#	132798
#	149680
#	163926
#	178869
#	193148
#	208585
#	222233
#	237811
#	251658
#	264287
#	279406
#
# Disc length: 3894 seconds
#
# Revision: 0
# Processed by: cddbd v1.5.2PL0 Copyright (c) Steve Scherf et al.
# Submitted via: CDex 1.70beta2
#
DISCID=390f3415
DTITLE=Bunny Berigan - Giants of Jazz (1)
DYEAR=1900
DGENRE=Jazz
TTITLE0=Them There Eyes: Hal Kemp and His Orchestra
TTITLE1=Everybody Loves My Baby: The Boswell Sisters
TTITLE2=Me Minus You: Connee Boswell
TTITLE3=Is That Religion?: Mildred Bailey with Dorsey Brothers' Orchestra 
TTITLE4=She Reminds Me of You: Paul Hamilton and His Orchestra 
TTITLE5=Troubled: Frankie Trumbauer and His Orchestra
TTITLE6=In a Little Spanish Town: Glenn Miller and His Orchestra
TTITLE7=Solo Hop: Glenn Miller and His Orchestra
TTITLE8=Nothin' but the Blues: Gene Gifford and His Orchestra
TTITLE9=Squareface: Gene Gifford and His Orchestra
TTITLE10=Sometimes I'm Happy: Benny Goodman and His Orchestra
TTITLE11=The Buzzard: Bud Freeman and His Windy City Five
TTITLE12=Tillie's Downtown Now: Bud Freeman and His Windy City Five
TTITLE13=Keep Smiling at Trouble: Bud Freeman and His Windy City Five 
TTITLE14=Willow Tree: Mildred Bailey and Her Alley Cats
TTITLE15=Honeysuckle Rose: Mildred Bailey and Her Alley Cats 
TTITLE16=You Took Advantage of Me: Bunny Berigan and His Blue Boys
TTITLE17=Chicken and Waffles: Bunny Berigan and His Blue Boys
TTITLE18=I'm Coming, Virginia: Bunny Berigan and His Blue Boys
TTITLE19=Blues: Bunny Berigan and His Blue Boys
TTITLE20=Let Yourself Go: Bunny Berigan and His Boys 
EXTD=
EXTT0=
EXTT1=
EXTT2=
EXTT3=
EXTT4=
EXTT5=
EXTT6=
EXTT7=
EXTT8=
EXTT9=
EXTT10=
EXTT11=
EXTT12=
EXTT13=
EXTT14=
EXTT15=
EXTT16=
EXTT17=
EXTT18=
EXTT19=
EXTT20=
PLAYORDER=
